<?xml version="1.0" standalone="no"?>
<!DOCTYPE svg PUBLIC "-//W3C//DTD SVG 20010904//EN"
 "http://www.w3.org/TR/2001/REC-SVG-20010904/DTD/svg10.dtd">
<svg version="1.0" xmlns="http://www.w3.org/2000/svg"
 width="233.000000pt" height="233.000000pt" viewBox="0 0 233.000000 233.000000"
 preserveAspectRatio="xMidYMid meet">
<metadata>
Created by potrace 1.11, written by Peter Selinger 2001-2013
</metadata>
<g transform="translate(0.000000,233.000000) scale(0.100000,-0.100000)"
fill="#000000" stroke="none">
<path d="M1358 2197 l-33 -23 -3 -529 c-1 -350 1 -548 9 -582 45 -219 266
-393 499 -393 151 0 259 39 352 127 92 88 106 145 46 187 -41 29 -65 20 -141
-52 -63 -60 -81 -71 -139 -87 -181 -49 -366 33 -442 195 -19 41 -21 63 -21
235 l0 190 264 3 c229 2 267 5 283 19 25 22 23 75 -3 99 -19 17 -42 19 -285
22 l-264 3 0 267 c0 292 -3 307 -57 328 -28 12 -35 11 -65 -9z"/>
<path d="M886 2169 l-26 -31 0 -454 0 -454 80 0 80 0 0 460 0 461 -25 24 c-35
35 -76 33 -109 -6z"/>
<path d="M485 1634 c-135 -18 -212 -51 -290 -125 -66 -62 -99 -124 -125 -230
-25 -105 -25 -153 0 -253 26 -103 61 -165 135 -237 l60 -60 3 112 c2 99 0 116
-20 158 -31 62 -38 207 -13 280 22 66 83 134 152 167 48 24 68 28 152 28 73 1
104 -3 128 -17 40 -21 76 -14 103 20 41 52 12 111 -68 137 -50 16 -166 27
-217 20z"/>
<path d="M686 1128 c-140 -19 -259 -110 -325 -248 l-36 -75 -3 -314 c-3 -312
-3 -314 19 -337 25 -27 73 -32 102 -10 31 24 36 70 37 346 1 249 2 272 21 315
48 108 135 168 244 168 101 0 174 -52 231 -163 27 -52 28 -64 34 -227 5 -161
7 -174 27 -195 27 -27 85 -28 114 -2 17 15 19 31 19 144 0 154 11 217 50 294
27 54 30 68 30 158 0 96 -1 98 -20 88 -11 -6 -47 -38 -80 -72 -33 -34 -61 -60
-63 -57 -102 147 -237 210 -401 187z"/>
<path d="M1720 370 c0 -131 3 -178 15 -199 24 -46 74 -55 119 -20 l26 20 0
185 0 184 -80 0 -80 0 0 -170z"/>
</g>
</svg>
